#!OML:ASF X:\für Bonn\!DataBase\2005_08_11_Bastian_Final\c3d\Bastian.ASF
:FULLY-SPECIFIED
:DEGREES
385
root 1.46194 17.0267 -16.2764 521.855 -230.515 -186.33
lowerback 7.50889 0.740193 1.59814
upperback 8.39976 1.23945 0.314183
thorax 4.54617 0.781875 -0.602875
lowerneck -12.0424 -7.06354 0.101236
upperneck 7.45615 -10.1112 6.11279
head 4.51111 -4.59217 1.10676
rclavicle 3.94091e-014 -9.14409e-015
rhumerus -36.6111 36.3818 -98.899
rradius 43.9082
rwrist -4.13087
rhand -17.261 2.04721
rfingers 7.12502
rthumb 8.98347 -27.7415
lclavicle 3.94091e-014 -9.14409e-015
lhumerus -7.75848 -2.56886 -281.838
lradius 22.9598
lwrist -327.83
lhand -9.18337 -10.6419
lfingers 7.12502
lthumb 16.7699 18.6538
rfemur 4.6127 11.9489 25.0126
rtibia 39.8417
rfoot -16.9355 -8.25476
rtoes 9.38392
lfemur 5.81426 -2.07043 -10.7179
ltibia 34.5004
lfoot -20.5925 -7.74942
ltoes -27.7739
386
root 1.48875 17.0233 -16.2948 521.596 -230.648 -186.526
lowerback 7.42337 0.643814 1.53055
upperback 8.44707 1.10445 0.413452
thorax 4.63734 0.708625 -0.455516
lowerneck -12.0392 -7.01832 -0.0693506
upperneck 7.54958 -10.036 6.16812
head 4.54857 -4.55406 1.15372
rclavicle -1.92324e-014 1.55052e-014
rhumerus -36.3033 34.7171 -97.9472
rradius 41.3852
rwrist -3.9406
rhand -16.8319 1.94524
rfingers 7.12502
rthumb 9.3975 -27.8253
lclavicle -1.92324e-014 1.55052e-014
lhumerus -6.96224 -3.03593 -282.187
lradius 24.916
lwrist -326.423
lhand -9.27407 -10.4479
lfingers 7.12502
lthumb 16.6826 18.8552
rfemur 4.83573 12.1546 25.1845
rtibia 39.76
rfoot -16.7881 -8.72889
rtoes 9.42612
lfemur 5.84834 -1.78405 -10.5702
ltibia 34.623
lfoot -20.6535 -8.22902
ltoes -27.7068
387
root 1.51619 17.022 -16.3144 521.442 -230.794 -186.614
lowerback 7.32072 0.552492 1.41398
upperback 8.502 0.97443 0.501375
thorax 4.74649 0.635601 -0.292687
lowerneck -12.0964 -6.97115 -0.291575
upperneck 7.67136 -9.9571 6.26449
head 4.60917 -4.51096 1.21877
rclavicle 4.91992e-015 -6.36111e-015
rhumerus -35.849 32.8989 -96.8377
rradius 38.8219
rwrist -3.72812
rhand -16.3065 1.87948
rfingers 7.12502
rthumb 9.9045 -27.8675
lclavicle 4.91992e-015 -6.36111e-015
lhumerus -6.19153 -3.38831 -282.509
lradius 26.8707
lwrist -324.946
lhand -9.49862 -10.5026
lfingers 7.12502
lthumb 16.4664 18.8186
rfemur 5.01944 12.2598 25.2393
rtibia 39.6963
rfoot -16.6227 -9.16008
rtoes 8.90951
lfemur 5.868 -1.5035 -10.5189
ltibia 34.7288
lfoot -20.7153 -8.6382
ltoes -27.6924
388
root 1.54401 17.0201 -16.3362 521.247 -230.884 -186.774
lowerback 7.23726 0.462864 1.39314
upperback 8.53497 0.850319 0.579485
thorax 4.82455 0.570407 -0.194697
lowerneck -12.1829 -6.91054 -0.386202
upperneck 7.84799 -9.87353 6.26012
head 4.67953 -4.4658 1.23259
rclavicle -6.05299e-014 1.98785e-015
rhumerus -35.387 30.9998 -95.7101
rradius 36.1918
rwrist -3.5706
rhand -15.8479 1.843
rfingers 7.12502
rthumb 10.3469 -27.8824
lclavicle -6.05299e-014 1.98785e-015
lhumerus -5.53084 -3.73532 -282.86
lradius 28.8723
lwrist -323.431
lhand -9.91086 -10.7826
lfingers 7.12502
lthumb 16.0695 18.5711
rfemur 5.16108 12.3074 25.3279
rtibia 39.6481
rfoot -16.4385 -9.59501
rtoes 8.20167
lfemur 5.89655 -1.29857 -10.4467
ltibia 34.8239
lfoot -20.7776 -8.96313
ltoes -27.588
389
root 1.57197 17.0183 -16.3589 521.131 -230.934 -186.844
lowerback 7.16378 0.394121 1.34692
upperback 8.56055 0.753569 0.641718
thorax 4.88987 0.517772 -0.10029
lowerneck -12.2467 -6.85519 -0.482724
upperneck 7.99841 -9.79547 6.26652
head 4.73891 -4.42414 1.25093
rclavicle -4.84538e-014 1.27222e-014
rhumerus -34.9847 29.0276 -94.543
rradius 33.6693
rwrist -3.66255
rhand -15.4976 1.71093
rfingers 7.12502
rthumb 10.6848 -27.9974
lclavicle -4.84538e-014 1.27222e-014
lhumerus -4.91804 -4.07342 -283.209
lradius 30.8487
lwrist -321.853
lhand -10.3885 -11.3735
lfingers 7.12502
lthumb 15.6095 18.0167
rfemur 5.25643 12.2793 25.3119
rtibia 39.6188
rfoot -16.2185 -9.97258
rtoes 7.31992
lfemur 5.94098 -1.16154 -10.4744
ltibia 34.9002
lfoot -20.8263 -9.17654
ltoes -27.3316
390
root 1.59864 17.0178 -16.3828 520.997 -230.95 -186.963
lowerback 7.08437 0.325868 1.33453
upperback 8.58394 0.657542 0.729044
thorax 4.95681 0.466446 0.00108171
lowerneck -12.2692 -6.79701 -0.633539
upperneck 8.0821 -9.7039 6.31292
head 4.77503 -4.3781 1.29357
rclavicle -5.11871e-015 -2.78299e-015
rhumerus -34.5546 26.9519 -93.2869
rradius 31.216
rwrist -3.94823
rhand -15.3074 1.42935
rfingers 7.12502
rthumb 10.8682 -28.2694
lclavicle -5.11871e-015 -2.78299e-015
lhumerus -4.35815 -4.27227 -283.514
lradius 32.8123
lwrist -320.324
lhand -10.9032 -12.2493
lfingers 7.12502
lthumb 15.1137 17.1789
rfemur 5.31792 12.2827 25.3464
rtibia 39.6
rfoot -15.9917 -10.384
rtoes 6.71527
lfemur 5.96804 -1.07995 -10.4905
ltibia 34.9666
lfoot -20.8841 -9.27576
ltoes -27.3531
391
root 1.62523 17.0174 -16.4069 520.895 -230.94 -187.065
lowerback 7.00073 0.262593 1.34283
upperback 8.60631 0.569113 0.798233
thorax 5.02596 0.420611 0.071684
lowerneck -12.3013 -6.73614 -0.75182
upperneck 8.1538 -9.61417 6.36874
head 4.80793 -4.33146 1.33396
rclavicle -1.07344e-014 -1.51076e-014
rhumerus -34.1514 24.7465 -91.967
rradius 28.9249
rwrist -4.42257
rhand -15.3278 1.02734
rfingers 7.12502
rthumb 10.8486 -28.6725
lclavicle -1.07344e-014 -1.51076e-014
lhumerus -3.81923 -4.4393 -283.848
lradius 34.7004
lwrist -318.827
lhand -11.3534 -13.3892
lfingers 7.12502
lthumb 14.68 16.0711
rfemur 5.33801 12.217 25.3396
rtibia 39.5995
rfoot -15.7494 -10.7918
rtoes 6.00814
lfemur 5.99714 -1.00801 -10.522
ltibia 35.0172
lfoot -20.928 -9.34584
ltoes -27.154
392
root 1.65136 17.0184 -16.43 520.868 -230.934 -187.099
lowerback 6.91746 0.199882 1.29642
upperback 8.6035 0.479292 0.853838
thorax 5.06773 0.370748 0.158253
lowerneck -12.2204 -6.67002 -0.849138
upperneck 8.1073 -9.51265 6.43478
head 4.78465 -4.28385 1.381
rclavicle -3.99557e-014 1.27222e-014
rhumerus -33.8542 22.4612 -90.6117
rradius 26.872
rwrist -5.08913
rhand -15.6013 0.481715
rfingers 7.12502
rthumb 10.5848 -29.2317
lclavicle -3.99557e-014 1.27222e-014
lhumerus -3.37858 -4.59602 -284.178
lradius 36.5086
lwrist -317.408
lhand -11.7853 -14.7168
lfingers 7.12502
lthumb 14.2639 14.7734
rfemur 5.31942 12.1299 25.2792
rtibia 39.6082
rfoot -15.5156 -11.2278
rtoes 5.50822
lfemur 6.00412 -0.942769 -10.6095
ltibia 35.061
lfoot -20.9933 -9.37614
ltoes -27.1928
393
root 1.67466 17.019 -16.4531 520.82 -230.896 -187.163
lowerback 6.8675 0.14785 1.25568
upperback 8.60255 0.404182 0.931392
thorax 5.09325 0.327944 0.263711
lowerneck -12.211 -6.62302 -0.994715
upperneck 8.10748 -9.43385 6.50813
head 4.7908 -4.24546 1.43269
rclavicle -6.26172e-015 8.74653e-015
rhumerus -33.604 20.0418 -89.1191
rradius 25.0434
rwrist -5.85691
rhand -16.0696 -0.132391
rfingers 7.12502
rthumb 10.133 -29.8684
lclavicle -6.26172e-015 8.74653e-015
lhumerus -2.97043 -4.80475 -284.494
lradius 38.2036
lwrist -316.093
lhand -12.1981 -16.0879
lfingers 7.12502
lthumb 13.8661 13.4298
rfemur 5.27557 11.978 25.232
rtibia 39.6371
rfoot -15.3076 -11.629
rtoes 5.06534
lfemur 6.01821 -0.882089 -10.6622
ltibia 35.0915
lfoot -21.0151 -9.40734
ltoes -26.938
